<?xml version="1.0" standalone="no"?>
<!DOCTYPE svg PUBLIC "-//W3C//DTD SVG 20010904//EN"
 "http://www.w3.org/TR/2001/REC-SVG-20010904/DTD/svg10.dtd">
<svg version="1.0" xmlns="http://www.w3.org/2000/svg"
 width="500.000000pt" height="500.000000pt" viewBox="0 0 500.000000 500.000000"
 preserveAspectRatio="xMidYMid meet">

<g transform="translate(0.000000,500.000000) scale(0.100000,-0.100000)"
fill="#000000" stroke="none">
<path d="M1230 2300 c-18 -18 -20 -33 -20 -162 0 -79 4 -148 8 -155 4 -6 20
-17 35 -22 37 -14 249 -14 280 0 39 18 47 50 47 185 0 119 -1 126 -25 149 -23
24 -29 25 -165 25 -127 0 -142 -2 -160 -20z m270 -165 l0 -105 -110 0 -110 0
0 105 0 105 110 0 110 0 0 -105z"/>
<path d="M1830 2135 l0 -185 35 0 34 0 3 63 3 62 52 3 52 3 53 -65 c50 -62 55
-66 96 -66 24 0 42 5 42 11 0 6 -18 33 -40 59 -44 53 -47 60 -25 60 9 0 27 11
40 25 22 21 25 33 25 95 0 62 -3 74 -25 95 -24 24 -28 25 -185 25 l-160 0 0
-185z m290 60 l0 -46 -107 3 -108 3 -3 43 -3 42 110 0 111 0 0 -45z"/>
<path d="M2270 2135 l0 -185 170 0 170 0 0 40 0 39 -132 3 -133 3 0 30 0 30
108 3 108 3 -3 37 -3 37 -107 3 -108 3 0 29 0 29 133 3 132 3 3 38 3 37 -170
0 -171 0 0 -185z"/>
<path d="M2660 2135 l0 -185 40 0 40 0 0 185 0 185 -40 0 -40 0 0 -185z"/>
<path d="M2980 2135 l0 -185 150 0 c164 0 202 9 214 52 3 13 6 78 6 144 0 108
-2 124 -21 148 l-20 26 -165 0 -164 0 0 -185z m290 0 l0 -105 -110 0 -110 0 0
105 0 105 110 0 110 0 0 -105z"/>
<path d="M3442 2297 c-20 -22 -22 -33 -22 -159 0 -189 -6 -183 185 -183 192 0
185 -7 185 186 0 186 7 179 -183 179 -137 0 -144 -1 -165 -23z m268 -159 l0
-108 -105 0 -105 0 0 108 0 107 105 0 105 0 0 -107z"/>
<path d="M792 1653 l3 -188 38 -3 37 -3 0 65 0 66 125 0 c160 0 165 4 165 120
0 73 -3 83 -25 105 -24 24 -28 25 -185 25 l-160 0 2 -187z m298 57 l0 -50
-110 0 -110 0 0 50 0 50 110 0 110 0 0 -50z"/>
<path d="M1246 1819 l-26 -20 0 -170 0 -169 35 0 34 0 3 63 3 62 107 3 107 3
3 -63 3 -63 35 0 35 0 3 161 2 162 -31 26 c-29 25 -35 26 -158 26 -115 0 -131
-2 -155 -21z m264 -109 l0 -50 -110 0 -110 0 0 50 0 50 110 0 110 0 0 -50z"/>
<path d="M1660 1650 l0 -191 38 3 37 3 3 63 3 62 53 0 53 0 52 -65 c49 -60 56
-65 92 -65 50 0 51 19 4 71 -38 42 -44 59 -20 59 8 0 24 9 35 20 29 29 29 166
1 201 -19 23 -25 24 -185 27 l-166 3 0 -191z m298 63 l-3 -48 -107 -3 -108 -3
0 51 0 50 111 0 110 0 -3 -47z"/>
<path d="M2131 1814 l-31 -26 0 -164 0 -165 38 3 37 3 3 63 3 63 107 -3 107
-3 3 -62 3 -63 34 0 35 0 0 165 c0 163 0 166 -25 190 -23 24 -29 25 -154 25
-125 0 -131 -1 -160 -26z m269 -104 l0 -50 -110 0 -110 0 0 50 0 50 110 0 110
0 0 -50z"/>
<path d="M2830 1650 l0 -190 35 0 35 0 0 65 0 65 58 0 c57 0 57 0 97 -51 22
-28 46 -58 54 -66 15 -16 82 -14 88 2 2 6 -15 32 -37 59 l-41 49 30 13 c40 17
51 42 51 119 0 60 -3 69 -29 96 l-29 29 -156 0 -156 0 0 -190z m288 63 l-3
-48 -105 0 -105 0 -3 48 -3 47 111 0 111 0 -3 -47z"/>
<path d="M3295 1815 c-25 -24 -25 -27 -25 -190 l0 -165 35 0 34 0 3 63 3 62
107 3 107 3 3 -63 3 -63 38 -3 37 -3 0 161 0 162 -29 29 -29 29 -132 0 c-126
0 -132 -1 -155 -25z m265 -105 l0 -50 -110 0 -110 0 0 43 c0 24 3 47 7 50 3 4
53 7 110 7 l103 0 0 -50z"/>
<path d="M3700 1650 l0 -190 40 0 40 0 0 190 0 190 -40 0 -40 0 0 -190z"/>
<path d="M3866 1819 c-26 -20 -26 -20 -26 -168 0 -194 -8 -186 182 -186 l140
0 24 28 c23 27 24 35 24 158 l0 131 -29 29 -29 29 -130 0 c-116 0 -132 -2
-156 -21z m264 -169 l0 -110 -110 0 -110 0 0 110 0 110 110 0 110 0 0 -110z"/>
<path d="M2550 1615 l0 -35 105 0 105 0 0 35 0 35 -105 0 -105 0 0 -35z"/>
</g>
</svg>
